<svg id="SetuVerified" xmlns="http://www.w3.org/2000/svg" viewBox="0 0 70 70"><defs><style>.cls-1{fill:#055777;}.cls-2{fill:#99d1d5;}</style></defs><title>SetuVerifiedArtboard 1</title><path class="cls-1" d="M65.19,35c0-2.9,3.92-6.28,3.21-8.95s-5.86-3.72-7.26-6.15.29-7.36-1.7-9.35-6.9-.28-9.36-1.7S46.7,2.33,43.94,1.59,37.88,4.79,35,4.79,28.71.87,26,1.59s-3.7,5.86-6.13,7.26-7.35-.3-9.35,1.7-.28,6.9-1.7,9.35-6.52,3.38-7.26,6.15,3.2,6.06,3.2,9-3.92,6.28-3.2,9,5.86,3.72,7.26,6.15-.3,7.36,1.7,9.35,6.9.28,9.35,1.7,3.38,6.52,6.15,7.26,6.06-3.2,9-3.2,6.28,3.92,9,3.2,3.72-5.86,6.15-7.26,7.36.3,9.35-1.7.28-6.9,1.7-9.35,6.52-3.38,7.26-6.15S65.19,37.9,65.19,35Z"/><path class="cls-2" d="M19.32,36.07l-4,4a1,1,0,0,0,0,1.46L25.44,51.58a1,1,0,0,0,1.46,0h0L54.64,23.85a1.05,1.05,0,0,0,0-1.47l-4-4a1,1,0,0,0-1.46,0h0L26.9,40.72a1,1,0,0,1-1.45,0h0l-4.65-4.65a1,1,0,0,0-1.46,0Z"/><rect class="cls-1" x="44.37" y="17.22" width="12.93" height="10.34" transform="translate(27.09 -27.83) rotate(40.92)"/><rect class="cls-1" x="13.19" y="32.07" width="6.71" height="10.34" transform="translate(28.44 -1.74) rotate(40.92)"/><circle class="cls-2" cx="47.11" cy="25.94" r="3.84"/><circle class="cls-2" cx="18.87" cy="39.58" r="3.84"/></svg>