<svg xmlns="http://www.w3.org/2000/svg" xmlns:xlink="http://www.w3.org/1999/xlink" width="140" zoomAndPan="magnify" viewBox="0 0 104.88 104.999996" height="140" preserveAspectRatio="xMidYMid meet" version="1.0"><defs><clipPath id="id1"><path d="M 10.488281 10.546875 L 94.390625 10.546875 L 94.390625 94.453125 L 10.488281 94.453125 Z M 10.488281 10.546875 " clip-rule="nonzero"/></clipPath></defs><path fill="#ffffff" d="M 15.4375 61.488281 C 15.554688 61.078125 15.660156 60.660156 15.792969 60.253906 C 16.5625 57.917969 18.121094 56.3125 20.425781 55.335938 C 20.308594 55.125 20.207031 54.941406 20.101562 54.761719 C 17.898438 50.988281 19.832031 46.210938 24.058594 45.070312 C 24.570312 44.933594 24.703125 44.742188 24.6875 44.25 C 24.628906 42.730469 24.675781 41.222656 25.1875 39.761719 C 26.515625 35.972656 29.96875 33.402344 33.984375 33.289062 C 35.710938 33.238281 37.441406 33.277344 39.289062 33.277344 C 39.289062 32.242188 39.332031 31.261719 39.277344 30.292969 C 39.222656 29.339844 39.597656 28.714844 40.394531 28.207031 C 41.953125 27.207031 43.472656 26.144531 45 25.09375 C 45.539062 24.722656 46.078125 24.445312 46.734375 24.777344 C 47.390625 25.109375 47.535156 25.691406 47.507812 26.359375 C 47.507812 26.425781 47.535156 26.496094 47.5625 26.648438 C 48.089844 26.296875 48.605469 25.996094 49.0625 25.621094 C 49.203125 25.503906 49.238281 25.195312 49.238281 24.972656 C 49.25 22.808594 49.242188 20.640625 49.246094 18.472656 C 49.25 17.210938 49.785156 16.671875 51.042969 16.652344 C 51.960938 16.640625 52.875 16.640625 53.789062 16.652344 C 55.042969 16.671875 55.589844 17.21875 55.589844 18.476562 C 55.597656 22.160156 55.597656 25.84375 55.59375 29.527344 L 55.59375 30.34375 L 56.261719 30.34375 C 56.28125 30.167969 56.316406 29.980469 56.316406 29.796875 C 56.320312 26.066406 56.320312 22.332031 56.320312 18.601562 C 56.320312 17.144531 56.808594 16.660156 58.269531 16.652344 C 59.066406 16.648438 59.859375 16.648438 60.65625 16.652344 C 62.160156 16.65625 62.660156 17.152344 62.660156 18.636719 C 62.664062 22.25 62.664062 25.863281 62.660156 29.472656 L 62.660156 30.179688 C 63.507812 30.402344 64.511719 30.378906 65.019531 30.871094 C 65.527344 31.359375 65.542969 32.363281 65.8125 33.269531 C 67.027344 33.269531 68.417969 33.253906 69.808594 33.269531 C 73.269531 33.308594 75.976562 34.773438 77.914062 37.621094 C 78.898438 39.066406 79.410156 40.679688 79.472656 42.433594 C 79.480469 42.625 79.492188 42.816406 79.507812 43.007812 C 79.511719 43.050781 79.542969 43.09375 79.609375 43.246094 L 81.046875 43.246094 C 82.203125 43.246094 83.359375 43.230469 84.511719 43.257812 C 85.371094 43.273438 85.941406 43.773438 85.992188 44.628906 C 86.050781 45.683594 86.039062 46.746094 86 47.804688 C 85.976562 48.457031 85.515625 48.835938 84.917969 48.824219 C 84.320312 48.8125 83.90625 48.421875 83.878906 47.761719 C 83.847656 47.019531 83.871094 46.273438 83.871094 45.472656 L 69.800781 45.472656 L 69.800781 63.914062 L 77.417969 63.914062 C 76.359375 61.648438 76.355469 59.414062 77.761719 57.320312 C 79.171875 55.230469 81.21875 54.347656 83.863281 54.519531 C 83.863281 54.003906 83.851562 53.511719 83.867188 53.023438 C 83.886719 52.203125 84.269531 51.761719 84.929688 51.757812 C 85.59375 51.75 86.085938 52.207031 86.007812 53.003906 C 85.863281 54.410156 86.277344 55.355469 87.429688 56.335938 C 89.832031 58.378906 90.058594 61.964844 88.234375 64.53125 C 86.410156 67.09375 83.023438 67.941406 80.199219 66.546875 C 80.007812 66.449219 79.816406 66.355469 79.488281 66.191406 C 79.488281 66.71875 79.492188 67.160156 79.488281 67.605469 C 79.398438 72.3125 76.269531 76.117188 71.652344 77 C 70.53125 77.214844 69.355469 77.171875 68.203125 77.191406 C 66.570312 77.222656 64.9375 77.199219 63.191406 77.199219 C 63.191406 78.332031 63.140625 79.410156 63.207031 80.476562 C 63.261719 81.40625 62.90625 81.976562 62.117188 82.472656 C 59.222656 84.285156 56.359375 86.148438 53.503906 88.023438 C 52.824219 88.472656 52.265625 88.460938 51.585938 88.015625 C 48.652344 86.085938 45.699219 84.183594 42.730469 82.300781 C 42.140625 81.925781 41.863281 81.464844 41.886719 80.761719 C 41.917969 79.609375 41.894531 78.457031 41.894531 77.199219 C 41.566406 77.199219 41.285156 77.203125 41.007812 77.199219 C 38.363281 77.167969 35.703125 77.28125 33.070312 77.070312 C 28.585938 76.714844 24.839844 72.597656 24.691406 68.097656 C 24.664062 67.308594 24.6875 66.519531 24.6875 65.628906 L 23.125 65.628906 C 21.34375 65.628906 19.558594 65.601562 17.777344 65.640625 C 16.671875 65.664062 15.855469 65.304688 15.4375 64.234375 Z M 26.855469 65.660156 C 26.855469 66.453125 26.832031 67.199219 26.855469 67.941406 C 26.96875 71.441406 29.792969 74.640625 33.289062 74.902344 C 36.089844 75.113281 38.917969 74.988281 41.730469 75.003906 C 41.769531 75.003906 41.808594 74.953125 41.894531 74.890625 C 41.894531 73.699219 41.917969 72.472656 41.886719 71.246094 C 41.867188 70.542969 42.132812 70.082031 42.726562 69.703125 C 45.6875 67.816406 48.640625 65.910156 51.578125 63.988281 C 52.25 63.546875 52.8125 63.527344 53.496094 63.972656 C 56.230469 65.769531 58.960938 67.578125 61.753906 69.277344 C 62.828125 69.933594 63.34375 70.675781 63.210938 71.949219 C 63.109375 72.941406 63.191406 73.953125 63.191406 74.992188 C 63.503906 75.011719 63.714844 75.03125 63.929688 75.03125 C 65.855469 75.035156 67.78125 75.058594 69.707031 75.023438 C 70.398438 75.011719 71.105469 74.933594 71.777344 74.761719 C 75.300781 73.859375 77.933594 70.339844 77.195312 66.128906 L 76.425781 66.128906 C 74.117188 66.128906 71.804688 66.128906 69.492188 66.128906 C 68.125 66.128906 67.59375 65.609375 67.59375 64.269531 C 67.59375 57.867188 67.59375 51.460938 67.59375 45.058594 C 67.59375 43.789062 68.125 43.253906 69.390625 43.25 C 71.75 43.246094 74.109375 43.25 76.472656 43.25 L 77.261719 43.25 C 77.28125 43.019531 77.308594 42.878906 77.308594 42.742188 C 77.273438 39.34375 74.875 36.253906 71.519531 35.667969 C 69.601562 35.332031 67.605469 35.441406 65.554688 35.347656 C 65.554688 35.9375 65.582031 36.367188 65.550781 36.792969 C 65.5 37.457031 65.027344 37.875 64.414062 37.84375 C 63.824219 37.816406 63.429688 37.40625 63.402344 36.75 C 63.382812 36.316406 63.394531 35.882812 63.394531 35.449219 C 63.394531 34.5 63.394531 33.546875 63.394531 32.621094 L 52.417969 32.621094 L 52.417969 43.535156 L 54.429688 43.535156 C 54.429688 41.863281 54.425781 40.230469 54.429688 38.597656 C 54.433594 37.292969 54.960938 36.777344 56.28125 36.773438 C 57.125 36.769531 57.96875 36.808594 58.808594 36.765625 C 61.425781 36.632812 61.730469 37.265625 61.65625 39.585938 C 61.617188 40.898438 61.648438 42.214844 61.648438 43.519531 L 63.394531 43.519531 C 63.394531 42.960938 63.382812 42.457031 63.398438 41.953125 C 63.417969 41.21875 63.835938 40.769531 64.476562 40.773438 C 65.109375 40.777344 65.535156 41.230469 65.558594 41.964844 C 65.574219 42.566406 65.5625 43.167969 65.5625 43.769531 C 65.558594 45.21875 65.042969 45.746094 63.617188 45.746094 C 56.152344 45.746094 48.6875 45.746094 41.226562 45.746094 C 39.828125 45.746094 39.292969 45.214844 39.289062 43.835938 C 39.285156 41.308594 39.285156 38.78125 39.289062 36.25 L 39.289062 35.457031 C 37.433594 35.457031 35.675781 35.402344 33.925781 35.472656 C 31.332031 35.574219 29.363281 36.816406 27.957031 38.980469 C 26.90625 40.59375 26.789062 42.402344 26.828125 44.253906 C 26.839844 44.742188 26.945312 44.9375 27.457031 45.074219 C 30.777344 45.96875 32.820312 49.164062 32.191406 52.546875 C 32.011719 53.515625 31.542969 54.425781 31.203125 55.375 C 34.722656 56.964844 36.257812 59.808594 36.078125 63.671875 C 36.023438 64.851562 35.363281 65.554688 34.191406 65.621094 C 33.664062 65.648438 33.132812 65.648438 32.605469 65.621094 C 31.855469 65.589844 31.421875 65.171875 31.421875 64.53125 C 31.425781 63.882812 31.851562 63.496094 32.613281 63.46875 C 33.035156 63.453125 33.453125 63.464844 33.859375 63.464844 C 34.125 60.398438 32.492188 57.933594 29.796875 57.234375 C 29.457031 57.144531 29.011719 57.15625 28.699219 57.300781 C 26.710938 58.207031 24.75 58.210938 22.777344 57.273438 C 22.574219 57.179688 22.316406 57.125 22.09375 57.148438 C 19.34375 57.445312 17.070312 60.703125 17.71875 63.4375 C 17.898438 63.445312 18.085938 63.460938 18.277344 63.460938 C 21.261719 63.464844 24.246094 63.457031 27.234375 63.46875 C 28.023438 63.46875 28.453125 63.832031 28.492188 64.464844 C 28.535156 65.121094 28.109375 65.539062 27.308594 65.628906 C 27.191406 65.640625 27.070312 65.644531 26.855469 65.660156 Z M 44.992188 70.835938 C 47.492188 72.445312 49.886719 74.003906 52.304688 75.523438 C 52.460938 75.621094 52.84375 75.5 53.046875 75.371094 C 55.21875 73.996094 57.375 72.597656 59.535156 71.203125 C 59.707031 71.089844 59.867188 70.960938 60.074219 70.8125 C 57.632812 69.234375 55.253906 67.695312 52.863281 66.175781 C 52.710938 66.078125 52.390625 66.074219 52.238281 66.171875 C 49.847656 67.691406 47.46875 69.234375 44.992188 70.835938 Z M 25.820312 47.015625 C 23.367188 46.988281 21.378906 48.914062 21.355469 51.335938 C 21.335938 53.78125 23.253906 55.765625 25.683594 55.820312 C 28.078125 55.875 30.125 53.886719 30.164062 51.476562 C 30.203125 49.050781 28.25 47.046875 25.820312 47.015625 Z M 45.304688 27.519531 C 44.15625 28.296875 43.097656 29.03125 42.011719 29.730469 C 41.609375 29.988281 41.441406 30.277344 41.445312 30.773438 C 41.464844 34.796875 41.457031 38.816406 41.457031 42.839844 C 41.457031 43.070312 41.476562 43.300781 41.488281 43.535156 L 45.304688 43.535156 Z M 61.019531 72.828125 C 58.535156 74.429688 56.207031 75.917969 53.90625 77.441406 C 53.726562 77.558594 53.632812 77.925781 53.632812 78.175781 C 53.609375 80.101562 53.621094 82.027344 53.621094 83.949219 L 53.621094 85.242188 C 53.792969 85.191406 53.871094 85.191406 53.925781 85.152344 C 56.171875 83.710938 58.417969 82.273438 60.640625 80.800781 C 60.847656 80.667969 60.996094 80.300781 61.003906 80.039062 C 61.046875 79.003906 61.023438 77.96875 61.023438 76.933594 Z M 51.449219 85.332031 C 51.449219 82.742188 51.460938 80.339844 51.429688 77.9375 C 51.429688 77.71875 51.191406 77.429688 50.984375 77.296875 C 48.898438 75.921875 46.792969 74.574219 44.691406 73.21875 C 44.519531 73.109375 44.332031 73.023438 44.0625 72.878906 C 44.0625 75.304688 44.078125 77.628906 44.050781 79.953125 C 44.042969 80.429688 44.214844 80.683594 44.601562 80.925781 C 46.390625 82.050781 48.160156 83.210938 49.9375 84.355469 C 50.398438 84.652344 50.855469 84.949219 51.449219 85.332031 Z M 50.1875 27.515625 C 49.394531 28.046875 48.738281 28.53125 48.039062 28.941406 C 47.605469 29.199219 47.492188 29.515625 47.496094 29.996094 C 47.511719 34.277344 47.503906 38.5625 47.507812 42.84375 C 47.507812 43.074219 47.527344 43.304688 47.539062 43.523438 L 50.1875 43.523438 Z M 78.851562 60.851562 C 78.851562 63.152344 80.707031 65.03125 83.007812 65.0625 C 85.308594 65.09375 87.246094 63.171875 87.246094 60.851562 C 87.246094 58.523438 85.339844 56.640625 83.007812 56.660156 C 80.691406 56.683594 78.855469 58.535156 78.851562 60.851562 Z M 58.523438 30.328125 L 60.4375 30.328125 L 60.4375 23.25 L 58.523438 23.25 Z M 56.625 43.535156 L 59.4375 43.535156 L 59.4375 38.992188 L 56.625 38.992188 Z M 53.367188 30.355469 L 53.367188 23.253906 L 51.347656 23.253906 C 51.425781 23.792969 51.324219 24.5 51.601562 24.707031 C 52.328125 25.246094 52.390625 25.90625 52.382812 26.671875 C 52.375 27.890625 52.382812 29.109375 52.382812 30.355469 Z M 51.476562 18.859375 L 51.476562 20.992188 L 53.386719 20.992188 L 53.386719 18.859375 Z M 60.4375 21.003906 L 60.4375 18.867188 L 58.523438 18.867188 L 58.523438 21.003906 Z M 60.4375 21.003906 " fill-opacity="1" fill-rule="nonzero"/><path fill="#ffffff" d="M 76.792969 54.34375 C 75.6875 54.34375 74.578125 54.351562 73.472656 54.34375 C 72.546875 54.335938 72.066406 53.953125 72.074219 53.25 C 72.082031 52.570312 72.542969 52.1875 73.421875 52.183594 C 75.6875 52.171875 77.949219 52.171875 80.210938 52.183594 C 81.066406 52.1875 81.546875 52.601562 81.539062 53.269531 C 81.53125 53.941406 81.046875 54.335938 80.1875 54.34375 C 79.058594 54.351562 77.925781 54.34375 76.792969 54.34375 Z M 76.792969 54.34375 " fill-opacity="1" fill-rule="nonzero"/><path fill="#ffffff" d="M 76.804688 50.398438 C 75.652344 50.398438 74.5 50.40625 73.347656 50.394531 C 72.539062 50.390625 72.085938 50 72.074219 49.34375 C 72.066406 48.6875 72.527344 48.246094 73.316406 48.238281 C 75.644531 48.222656 77.972656 48.222656 80.300781 48.238281 C 81.074219 48.246094 81.550781 48.707031 81.539062 49.347656 C 81.527344 50 81.066406 50.390625 80.261719 50.398438 C 79.109375 50.40625 77.957031 50.398438 76.804688 50.398438 Z M 76.804688 50.398438 " fill-opacity="1" fill-rule="nonzero"/><path fill="#ffffff" d="M 74.273438 56.125 C 74.660156 56.125 75.042969 56.109375 75.425781 56.128906 C 76.046875 56.164062 76.410156 56.511719 76.453125 57.125 C 76.496094 57.746094 76.15625 58.1875 75.5625 58.238281 C 74.699219 58.3125 73.835938 58.3125 72.972656 58.238281 C 72.378906 58.183594 72.039062 57.734375 72.085938 57.117188 C 72.132812 56.511719 72.503906 56.164062 73.121094 56.128906 C 73.503906 56.105469 73.890625 56.125 74.273438 56.125 Z M 74.273438 56.125 " fill-opacity="1" fill-rule="nonzero"/><path fill="#ffffff" d="M 82.695312 60.941406 C 83.371094 60.222656 83.933594 59.597656 84.527344 59.003906 C 85.078125 58.449219 85.730469 58.410156 86.183594 58.859375 C 86.65625 59.328125 86.632812 59.9375 86.074219 60.511719 C 85.25 61.355469 84.417969 62.1875 83.570312 63.011719 C 83 63.5625 82.425781 63.5625 81.859375 63.019531 C 81.214844 62.402344 80.585938 61.773438 79.96875 61.128906 C 79.464844 60.601562 79.453125 59.96875 79.898438 59.53125 C 80.355469 59.078125 80.945312 59.105469 81.503906 59.613281 C 81.714844 59.804688 81.921875 60.011719 82.117188 60.222656 C 82.292969 60.417969 82.449219 60.632812 82.695312 60.941406 Z M 82.695312 60.941406 " fill-opacity="1" fill-rule="nonzero"/><g clip-path="url(#id1)"><path fill="#ffffff" d="M 52.441406 10.546875 C 29.269531 10.546875 10.488281 29.332031 10.488281 52.5 C 10.488281 75.667969 29.269531 94.449219 52.441406 94.449219 C 75.609375 94.449219 94.390625 75.667969 94.390625 52.5 C 94.390625 29.332031 75.609375 10.546875 52.441406 10.546875 Z M 52.441406 92.058594 C 30.59375 92.058594 12.882812 74.347656 12.882812 52.5 C 12.882812 30.652344 30.59375 12.941406 52.441406 12.941406 C 74.285156 12.941406 91.996094 30.652344 91.996094 52.5 C 91.996094 74.347656 74.285156 92.058594 52.441406 92.058594 Z M 52.441406 92.058594 " fill-opacity="1" fill-rule="nonzero"/></g></svg>