<svg xmlns="http://www.w3.org/2000/svg" xmlns:xlink="http://www.w3.org/1999/xlink" width="140" zoomAndPan="magnify" viewBox="0 0 104.88 104.999996" height="140" preserveAspectRatio="xMidYMid meet" version="1.0"><defs><clipPath id="id1"><path d="M 10.488281 10.546875 L 94.390625 10.546875 L 94.390625 94.453125 L 10.488281 94.453125 Z M 10.488281 10.546875 " clip-rule="nonzero"/></clipPath></defs><path fill="#ffffff" d="M 52.441406 32.667969 C 53.339844 32.667969 54.117188 32.097656 54.410156 31.292969 L 50.46875 31.292969 C 50.761719 32.097656 51.542969 32.667969 52.441406 32.667969 Z M 52.441406 32.667969 " fill-opacity="1" fill-rule="nonzero"/><path fill="#ffffff" d="M 37.472656 35.65625 L 37.472656 36.390625 C 37.472656 36.820312 37.820312 37.167969 38.25 37.167969 L 46.804688 37.167969 L 49.394531 35.363281 C 49.488281 35.300781 49.597656 35.265625 49.707031 35.265625 L 55.167969 35.265625 C 55.28125 35.265625 55.386719 35.300781 55.480469 35.363281 L 58.070312 37.167969 L 66.625 37.167969 C 67.054688 37.167969 67.402344 36.820312 67.402344 36.390625 L 67.402344 35.652344 L 60.257812 35.652344 C 58.535156 35.652344 57.136719 34.253906 57.136719 32.53125 L 57.136719 32.0625 C 57.136719 31.636719 56.789062 31.289062 56.359375 31.289062 L 55.542969 31.289062 C 55.214844 32.707031 53.9375 33.757812 52.433594 33.757812 C 50.933594 33.757812 49.652344 32.707031 49.324219 31.289062 L 48.511719 31.289062 C 48.082031 31.289062 47.734375 31.636719 47.734375 32.0625 L 47.734375 32.53125 C 47.734375 34.253906 46.332031 35.652344 44.613281 35.652344 L 39.355469 35.652344 Z M 37.472656 35.65625 " fill-opacity="1" fill-rule="nonzero"/><path fill="#ffffff" d="M 56.945312 37.710938 L 55 36.359375 L 49.878906 36.359375 L 47.9375 37.710938 L 49.878906 39.066406 L 55 39.066406 Z M 56.945312 37.710938 " fill-opacity="1" fill-rule="nonzero"/><path fill="#ffffff" d="M 51.316406 49.371094 C 51.070312 49.796875 51.070312 50.304688 51.316406 50.734375 C 51.5625 51.160156 52.003906 51.417969 52.496094 51.417969 C 52.988281 51.417969 53.429688 51.160156 53.675781 50.734375 C 53.921875 50.304688 53.921875 49.796875 53.675781 49.371094 L 52.496094 47.320312 Z M 51.316406 49.371094 " fill-opacity="1" fill-rule="nonzero"/><path fill="#ffffff" d="M 75.945312 75.71875 C 76.246094 75.71875 76.492188 75.472656 76.492188 75.171875 C 76.492188 74.871094 76.246094 74.625 75.945312 74.625 L 64.546875 74.625 C 64.308594 73.101562 63.097656 71.890625 61.570312 71.660156 L 61.570312 71.226562 C 61.984375 70.582031 62.574219 70.0625 63.261719 69.738281 C 63.332031 69.832031 63.414062 69.925781 63.5 70.011719 C 63.960938 70.472656 64.570312 70.722656 65.203125 70.722656 C 65.414062 70.722656 65.625 70.695312 65.839844 70.636719 C 66.6875 70.410156 67.328125 69.769531 67.554688 68.921875 L 68.394531 65.78125 C 68.445312 65.59375 68.390625 65.390625 68.253906 65.253906 C 68.117188 65.117188 67.914062 65.0625 67.726562 65.113281 L 64.582031 65.953125 C 63.738281 66.179688 63.097656 66.820312 62.871094 67.667969 C 62.773438 68.023438 62.761719 68.386719 62.824219 68.730469 C 62.367188 68.945312 61.945312 69.222656 61.570312 69.554688 L 61.570312 65.59375 C 62.210938 65.445312 62.765625 65.042969 63.105469 64.453125 C 63.542969 63.699219 63.542969 62.800781 63.105469 62.046875 L 61.496094 59.257812 C 61.398438 59.089844 61.21875 58.984375 61.023438 58.984375 C 60.828125 58.984375 60.648438 59.089844 60.550781 59.257812 L 58.941406 62.046875 C 58.503906 62.800781 58.503906 63.703125 58.941406 64.453125 C 59.28125 65.046875 59.832031 65.449219 60.476562 65.59375 L 60.476562 69.535156 C 60.109375 69.210938 59.695312 68.9375 59.246094 68.730469 C 59.3125 68.382812 59.296875 68.023438 59.203125 67.664062 C 58.972656 66.816406 58.332031 66.175781 57.484375 65.949219 L 54.339844 65.105469 C 54.152344 65.054688 53.953125 65.109375 53.8125 65.25 C 53.675781 65.386719 53.621094 65.585938 53.671875 65.777344 L 54.515625 68.921875 C 54.742188 69.769531 55.382812 70.410156 56.230469 70.636719 C 56.445312 70.695312 56.660156 70.722656 56.871094 70.722656 C 57.503906 70.722656 58.109375 70.472656 58.578125 70.007812 C 58.664062 69.921875 58.742188 69.832031 58.8125 69.734375 C 59.492188 70.054688 60.070312 70.5625 60.484375 71.195312 L 60.484375 71.660156 C 58.964844 71.898438 57.761719 73.101562 57.523438 74.625 L 47.359375 74.625 C 47.121094 73.097656 45.914062 71.886719 44.386719 71.65625 L 44.386719 71.226562 C 44.796875 70.578125 45.386719 70.058594 46.074219 69.734375 C 46.148438 69.832031 46.226562 69.921875 46.3125 70.007812 C 46.777344 70.472656 47.386719 70.722656 48.015625 70.722656 C 48.226562 70.722656 48.441406 70.695312 48.652344 70.636719 C 49.5 70.410156 50.140625 69.769531 50.367188 68.921875 L 51.207031 65.777344 C 51.257812 65.589844 51.207031 65.390625 51.070312 65.25 C 50.929688 65.113281 50.730469 65.058594 50.542969 65.109375 L 47.398438 65.953125 C 46.550781 66.179688 45.910156 66.820312 45.683594 67.667969 C 45.589844 68.023438 45.574219 68.382812 45.636719 68.730469 C 45.179688 68.941406 44.761719 69.21875 44.386719 69.554688 L 44.386719 65.59375 C 45.027344 65.445312 45.582031 65.042969 45.921875 64.453125 C 46.359375 63.699219 46.359375 62.796875 45.921875 62.046875 L 44.3125 59.257812 C 44.214844 59.085938 44.035156 58.984375 43.839844 58.984375 C 43.644531 58.984375 43.460938 59.089844 43.367188 59.257812 L 41.753906 62.046875 C 41.320312 62.800781 41.320312 63.699219 41.753906 64.453125 C 42.097656 65.042969 42.648438 65.445312 43.292969 65.59375 L 43.292969 69.535156 C 42.925781 69.210938 42.511719 68.9375 42.0625 68.730469 C 42.125 68.382812 42.109375 68.023438 42.015625 67.664062 C 41.789062 66.816406 41.148438 66.175781 40.300781 65.949219 L 37.152344 65.105469 C 36.964844 65.054688 36.761719 65.109375 36.625 65.25 C 36.488281 65.386719 36.433594 65.585938 36.484375 65.777344 L 37.328125 68.921875 C 37.554688 69.769531 38.195312 70.410156 39.042969 70.636719 C 39.253906 70.695312 39.46875 70.722656 39.679688 70.722656 C 40.3125 70.722656 40.921875 70.472656 41.386719 70.007812 C 41.472656 69.921875 41.554688 69.832031 41.625 69.734375 C 42.300781 70.054688 42.878906 70.558594 43.292969 71.195312 L 43.292969 71.660156 C 41.773438 71.898438 40.570312 73.105469 40.332031 74.625 L 28.9375 74.625 C 28.636719 74.625 28.390625 74.871094 28.390625 75.171875 C 28.390625 75.472656 28.636719 75.71875 28.9375 75.71875 Z M 75.945312 75.71875 " fill-opacity="1" fill-rule="nonzero"/><path fill="#ffffff" d="M 65.390625 41.355469 C 65.179688 41.140625 64.832031 41.140625 64.621094 41.355469 L 63.160156 42.816406 C 62.964844 42.726562 62.75 42.679688 62.523438 42.679688 C 62.386719 42.679688 62.257812 42.695312 62.128906 42.726562 L 58.957031 38.261719 L 58.070312 38.261719 L 57.765625 38.472656 L 61.238281 43.359375 C 61.070312 43.609375 60.972656 43.90625 60.972656 44.222656 C 60.972656 44.453125 61.023438 44.667969 61.109375 44.859375 L 59.652344 46.320312 C 59.4375 46.535156 59.4375 46.882812 59.652344 47.09375 C 59.757812 47.203125 59.898438 47.253906 60.039062 47.253906 C 60.179688 47.253906 60.316406 47.203125 60.421875 47.09375 L 61.882812 45.632812 C 62.078125 45.722656 62.292969 45.769531 62.519531 45.769531 C 63.375 45.769531 64.070312 45.078125 64.070312 44.222656 C 64.070312 43.996094 64.019531 43.78125 63.929688 43.585938 L 65.390625 42.125 C 65.605469 41.914062 65.605469 41.570312 65.390625 41.355469 Z M 65.390625 41.355469 " fill-opacity="1" fill-rule="nonzero"/><path fill="#ffffff" d="M 57.855469 49.292969 C 57.574219 49.183594 57.257812 49.324219 57.152344 49.609375 C 57.042969 49.890625 57.1875 50.207031 57.46875 50.3125 C 61.132812 51.703125 63.738281 54.972656 64.269531 58.847656 C 64.308594 59.121094 64.542969 59.320312 64.8125 59.320312 C 64.835938 59.320312 64.859375 59.320312 64.886719 59.316406 C 65.183594 59.273438 65.394531 59 65.351562 58.699219 C 64.765625 54.429688 61.894531 50.824219 57.855469 49.292969 Z M 57.855469 49.292969 " fill-opacity="1" fill-rule="nonzero"/><path fill="#ffffff" d="M 62.007812 31.375 L 64.070312 31.375 C 64.144531 31.570312 64.261719 31.757812 64.425781 31.917969 C 64.585938 32.082031 64.773438 32.199219 64.972656 32.273438 L 64.972656 34.558594 L 66.066406 34.558594 L 66.066406 32.269531 C 66.261719 32.195312 66.449219 32.078125 66.609375 31.917969 C 66.773438 31.757812 66.886719 31.570312 66.964844 31.371094 L 69.027344 31.371094 C 69.332031 31.371094 69.574219 31.125 69.574219 30.824219 C 69.574219 30.523438 69.332031 30.277344 69.027344 30.277344 L 66.964844 30.277344 C 66.890625 30.078125 66.773438 29.890625 66.609375 29.730469 C 66.007812 29.128906 65.027344 29.128906 64.421875 29.730469 C 64.261719 29.890625 64.144531 30.078125 64.070312 30.277344 L 62.003906 30.277344 C 61.703125 30.277344 61.457031 30.523438 61.457031 30.824219 C 61.460938 31.128906 61.707031 31.375 62.007812 31.375 Z M 62.007812 31.375 " fill-opacity="1" fill-rule="nonzero"/><path fill="#ffffff" d="M 40.109375 59.316406 C 40.132812 59.320312 40.15625 59.320312 40.183594 59.320312 C 40.449219 59.320312 40.6875 59.121094 40.722656 58.847656 C 41.257812 54.972656 43.863281 51.703125 47.527344 50.3125 C 47.808594 50.207031 47.953125 49.890625 47.84375 49.609375 C 47.734375 49.324219 47.421875 49.183594 47.136719 49.292969 C 43.101562 50.824219 40.226562 54.429688 39.640625 58.699219 C 39.601562 59 39.808594 59.277344 40.109375 59.316406 Z M 40.109375 59.316406 " fill-opacity="1" fill-rule="nonzero"/><path fill="#ffffff" d="M 46.804688 38.261719 L 45.917969 38.261719 L 42.75 42.726562 C 42.625 42.695312 42.492188 42.679688 42.355469 42.679688 C 42.128906 42.679688 41.914062 42.726562 41.71875 42.816406 L 40.257812 41.355469 C 40.042969 41.140625 39.699219 41.140625 39.484375 41.355469 C 39.273438 41.570312 39.273438 41.914062 39.484375 42.125 L 40.945312 43.585938 C 40.859375 43.78125 40.808594 43.996094 40.808594 44.222656 C 40.808594 45.078125 41.503906 45.769531 42.359375 45.769531 C 42.582031 45.769531 42.800781 45.722656 42.996094 45.632812 L 44.457031 47.09375 C 44.5625 47.203125 44.703125 47.253906 44.839844 47.253906 C 44.980469 47.253906 45.121094 47.203125 45.226562 47.09375 C 45.441406 46.878906 45.441406 46.535156 45.226562 46.320312 L 43.765625 44.859375 C 43.855469 44.667969 43.902344 44.453125 43.902344 44.222656 C 43.902344 43.902344 43.804688 43.609375 43.636719 43.359375 L 47.109375 38.472656 Z M 46.804688 38.261719 " fill-opacity="1" fill-rule="nonzero"/><path fill="#ffffff" d="M 35.847656 31.375 L 37.914062 31.375 C 37.988281 31.570312 38.105469 31.757812 38.265625 31.917969 C 38.429688 32.082031 38.613281 32.195312 38.8125 32.273438 L 38.8125 34.558594 L 39.90625 34.558594 L 39.90625 32.269531 C 40.105469 32.195312 40.292969 32.078125 40.453125 31.917969 C 40.613281 31.757812 40.730469 31.570312 40.804688 31.371094 L 42.871094 31.371094 C 43.171875 31.371094 43.417969 31.125 43.417969 30.824219 C 43.417969 30.523438 43.171875 30.277344 42.871094 30.277344 L 40.804688 30.277344 C 40.734375 30.078125 40.613281 29.890625 40.453125 29.730469 C 40.152344 29.429688 39.753906 29.277344 39.359375 29.277344 C 38.964844 29.277344 38.570312 29.429688 38.265625 29.730469 C 38.105469 29.890625 37.988281 30.078125 37.914062 30.277344 L 35.847656 30.277344 C 35.546875 30.277344 35.300781 30.523438 35.300781 30.824219 C 35.300781 31.128906 35.546875 31.375 35.847656 31.375 Z M 35.847656 31.375 " fill-opacity="1" fill-rule="nonzero"/><g clip-path="url(#id1)"><path fill="#ffffff" d="M 52.441406 94.453125 C 46.777344 94.453125 41.28125 93.34375 36.109375 91.15625 C 31.113281 89.042969 26.625 86.019531 22.773438 82.167969 C 18.921875 78.3125 15.898438 73.828125 13.785156 68.832031 C 11.597656 63.65625 10.488281 58.164062 10.488281 52.5 C 10.488281 46.835938 11.597656 41.34375 13.785156 36.167969 C 15.898438 31.175781 18.921875 26.6875 22.773438 22.832031 C 26.625 18.980469 31.113281 15.957031 36.109375 13.84375 C 41.28125 11.65625 46.777344 10.546875 52.441406 10.546875 C 58.101562 10.546875 63.597656 11.65625 68.769531 13.84375 C 73.765625 15.957031 78.253906 18.980469 82.105469 22.832031 C 85.957031 26.6875 88.984375 31.171875 91.097656 36.167969 C 93.285156 41.34375 94.390625 46.835938 94.390625 52.5 C 94.390625 58.164062 93.28125 63.65625 91.097656 68.832031 C 88.984375 73.824219 85.957031 78.3125 82.105469 82.167969 C 78.253906 86.019531 73.765625 89.042969 68.769531 91.15625 C 63.597656 93.34375 58.101562 94.453125 52.441406 94.453125 Z M 52.441406 11.652344 C 29.917969 11.652344 11.59375 29.976562 11.59375 52.5 C 11.59375 75.023438 29.917969 93.347656 52.441406 93.347656 C 74.964844 93.347656 93.289062 75.023438 93.289062 52.5 C 93.289062 29.976562 74.964844 11.652344 52.441406 11.652344 Z M 52.441406 11.652344 " fill-opacity="1" fill-rule="nonzero"/></g></svg>