<svg xmlns="http://www.w3.org/2000/svg" xmlns:xlink="http://www.w3.org/1999/xlink" width="140" zoomAndPan="magnify" viewBox="0 0 104.88 104.999996" height="140" preserveAspectRatio="xMidYMid meet" version="1.0"><defs><clipPath id="id1"><path d="M 10.488281 10.546875 L 94.390625 10.546875 L 94.390625 94.453125 L 10.488281 94.453125 Z M 10.488281 10.546875 " clip-rule="nonzero"/></clipPath><clipPath id="id2"><path d="M 21.585938 26.699219 L 83 26.699219 L 83 78.390625 L 21.585938 78.390625 Z M 21.585938 26.699219 " clip-rule="nonzero"/></clipPath></defs><g clip-path="url(#id1)"><path fill="#ffffff" d="M 52.441406 94.453125 C 29.316406 94.453125 10.488281 75.625 10.488281 52.5 C 10.488281 29.375 29.316406 10.546875 52.441406 10.546875 C 75.566406 10.546875 94.390625 29.375 94.390625 52.5 C 94.390625 75.625 75.566406 94.453125 52.441406 94.453125 Z M 52.441406 11.167969 C 29.644531 11.167969 11.109375 29.707031 11.109375 52.5 C 11.109375 75.292969 29.644531 93.832031 52.441406 93.832031 C 75.234375 93.832031 93.773438 75.292969 93.773438 52.5 C 93.773438 29.707031 75.234375 11.167969 52.441406 11.167969 Z M 52.441406 11.167969 " fill-opacity="1" fill-rule="nonzero"/></g><g clip-path="url(#id2)"><path fill="#ffffff" d="M 55.519531 36.484375 C 55.175781 36.484375 54.832031 36.621094 54.570312 36.886719 L 51.664062 39.902344 L 50.089844 38.34375 C 49.832031 38.089844 49.496094 37.960938 49.164062 37.960938 C 48.820312 37.960938 48.480469 38.09375 48.222656 38.359375 C 47.710938 38.878906 47.714844 39.722656 48.234375 40.238281 L 50.753906 42.738281 C 51.003906 42.984375 51.335938 43.121094 51.683594 43.121094 C 51.6875 43.121094 51.691406 43.121094 51.699219 43.121094 C 52.050781 43.117188 52.386719 42.96875 52.628906 42.714844 L 56.46875 38.738281 C 56.976562 38.214844 56.964844 37.371094 56.441406 36.859375 C 56.183594 36.609375 55.851562 36.484375 55.519531 36.484375 Z M 52.285156 29.816406 C 53.113281 30.574219 54.003906 31.335938 54.984375 31.976562 C 56.054688 32.679688 57.214844 33.222656 58.320312 33.703125 C 58.324219 38.28125 58.253906 42.378906 57.21875 44.875 C 56.296875 47.113281 54.546875 48.085938 52.300781 49.128906 C 49.875 47.972656 47.988281 46.910156 47.0625 44.664062 C 46.046875 42.195312 46.109375 38.214844 46.277344 33.738281 L 46.273438 33.738281 C 47.199219 33.351562 48.1875 32.894531 49.226562 32.214844 C 50.238281 31.554688 51.28125 30.6875 52.285156 29.816406 Z M 52.3125 26.699219 C 52.003906 26.699219 51.695312 26.808594 51.445312 27.027344 C 50.132812 28.183594 48.910156 29.25 47.785156 29.988281 C 46.683594 30.707031 45.648438 31.128906 44.496094 31.59375 C 44.011719 31.789062 43.6875 32.25 43.667969 32.773438 C 43.492188 37.335938 43.265625 42.386719 44.621094 45.679688 C 46.0625 49.1875 49.191406 50.601562 51.734375 51.796875 C 51.910156 51.878906 52.101562 51.921875 52.292969 51.921875 C 52.476562 51.921875 52.664062 51.882812 52.835938 51.804688 C 55.25 50.703125 58.210938 49.402344 59.660156 45.898438 C 61.011719 42.628906 60.972656 37.496094 60.960938 32.824219 C 60.960938 32.292969 60.644531 31.8125 60.15625 31.605469 C 58.78125 31.015625 57.535156 30.472656 56.425781 29.75 C 55.316406 29.023438 54.316406 28.089844 53.214844 27.054688 C 52.960938 26.820312 52.636719 26.699219 52.3125 26.699219 Z M 36.164062 49.285156 C 38.464844 49.285156 40.328125 51.160156 40.328125 53.472656 C 40.328125 55.785156 38.464844 57.660156 36.164062 57.660156 C 33.867188 57.660156 32.003906 55.785156 32.003906 53.472656 C 32.003906 51.160156 33.867188 49.285156 36.164062 49.285156 Z M 68.433594 49.851562 C 70.730469 49.851562 72.59375 51.726562 72.59375 54.039062 C 72.59375 56.351562 70.730469 58.226562 68.433594 58.226562 C 66.132812 58.226562 64.269531 56.351562 64.269531 54.039062 C 64.269531 51.726562 66.132812 49.851562 68.433594 49.851562 Z M 36.164062 46.628906 C 32.40625 46.628906 29.359375 49.691406 29.359375 53.472656 C 29.359375 57.253906 32.40625 60.320312 36.164062 60.320312 C 39.921875 60.320312 42.96875 57.253906 42.96875 53.472656 C 42.96875 49.691406 39.921875 46.628906 36.164062 46.628906 Z M 68.433594 47.191406 C 64.675781 47.191406 61.628906 50.257812 61.628906 54.039062 C 61.628906 57.820312 64.675781 60.886719 68.433594 60.886719 C 72.191406 60.886719 75.238281 57.820312 75.238281 54.039062 C 75.238281 50.257812 72.191406 47.191406 68.433594 47.191406 Z M 52.578125 60.152344 C 53.632812 60.152344 54.492188 61.011719 54.492188 62.074219 C 54.492188 63.136719 53.632812 64 52.578125 64 C 51.523438 64 50.667969 63.136719 50.667969 62.074219 C 50.667969 61.011719 51.523438 60.152344 52.578125 60.152344 Z M 52.578125 57.492188 C 50.0625 57.492188 48.023438 59.542969 48.023438 62.074219 C 48.023438 64.605469 50.0625 66.660156 52.578125 66.660156 C 55.09375 66.660156 57.132812 64.605469 57.132812 62.074219 C 57.132812 59.542969 55.09375 57.492188 52.578125 57.492188 Z M 57.925781 74.785156 C 57.9375 74.816406 57.953125 74.847656 57.96875 74.878906 L 58.046875 75.023438 C 58 74.949219 57.957031 74.871094 57.921875 74.785156 Z M 36.40625 65.425781 L 37.0625 65.445312 L 37.714844 65.523438 L 38.359375 65.652344 L 38.988281 65.835938 L 39.601562 66.070312 L 40.195312 66.351562 L 40.761719 66.6875 L 41.296875 67.0625 L 41.800781 67.488281 L 42.269531 67.949219 L 42.699219 68.449219 L 43.085938 68.980469 L 43.425781 69.546875 L 43.722656 70.136719 L 43.964844 70.75 L 44.160156 71.378906 L 44.300781 72.023438 L 44.386719 72.679688 L 44.421875 73.394531 C 44.425781 73.425781 44.425781 73.460938 44.429688 73.492188 L 44.347656 73.675781 C 44.332031 73.707031 44.316406 73.742188 44.304688 73.773438 L 44.105469 74.316406 C 44.09375 74.347656 44.085938 74.382812 44.074219 74.414062 L 43.917969 74.972656 C 43.910156 75.007812 43.902344 75.039062 43.894531 75.074219 L 43.78125 75.640625 C 43.777344 75.667969 43.773438 75.695312 43.769531 75.726562 L 28.554688 75.726562 L 28.554688 72.875 L 28.609375 72.316406 L 28.710938 71.742188 L 28.851562 71.175781 L 29.035156 70.625 L 29.257812 70.085938 L 29.515625 69.566406 L 29.8125 69.066406 L 30.148438 68.589844 L 30.511719 68.140625 L 30.910156 67.714844 L 31.335938 67.324219 L 31.792969 66.964844 L 32.269531 66.636719 L 32.773438 66.347656 L 33.292969 66.09375 L 33.828125 65.882812 L 34.460938 65.6875 L 35.101562 65.546875 L 35.75 65.457031 Z M 52.3125 71.011719 L 52.808594 71.035156 L 53.300781 71.097656 L 53.789062 71.199219 L 54.261719 71.339844 L 54.726562 71.523438 L 55.171875 71.742188 L 55.597656 71.996094 L 56 72.289062 L 56.378906 72.609375 L 56.730469 72.964844 L 57.050781 73.34375 L 57.339844 73.75 L 57.59375 74.179688 L 57.8125 74.628906 L 57.992188 75.09375 L 58.132812 75.570312 L 58.164062 75.726562 L 46.460938 75.726562 L 46.476562 75.644531 L 46.605469 75.1875 L 46.765625 74.742188 L 46.964844 74.3125 L 47.195312 73.898438 L 47.457031 73.503906 L 47.75 73.132812 L 48.070312 72.78125 L 48.414062 72.460938 L 48.785156 72.167969 L 49.175781 71.902344 L 49.589844 71.671875 L 50.015625 71.472656 L 50.457031 71.308594 L 50.910156 71.179688 L 51.375 71.089844 L 51.84375 71.03125 Z M 68.488281 66.394531 L 69.144531 66.429688 L 69.792969 66.515625 L 70.433594 66.65625 L 71.066406 66.851562 L 71.601562 67.0625 L 72.121094 67.316406 L 72.625 67.605469 L 73.101562 67.933594 L 73.558594 68.292969 L 73.984375 68.6875 L 74.382812 69.109375 L 74.75 69.558594 L 75.082031 70.035156 L 75.378906 70.535156 L 75.636719 71.054688 L 75.859375 71.59375 L 76.042969 72.148438 L 76.183594 72.710938 L 76.285156 73.285156 L 76.320312 73.640625 C 76.320312 73.753906 76.332031 73.898438 76.347656 74.078125 L 76.382812 75.726562 L 60.855469 75.726562 L 60.851562 75.675781 C 60.847656 75.640625 60.839844 75.605469 60.832031 75.566406 L 60.707031 74.972656 C 60.699219 74.9375 60.691406 74.902344 60.683594 74.867188 L 60.632812 74.695312 L 60.628906 74.695312 C 60.617188 74.539062 60.589844 74.375 60.550781 74.207031 C 60.53125 74.121094 60.511719 74.042969 60.492188 73.976562 L 60.507812 73.648438 L 60.59375 72.996094 L 60.738281 72.351562 L 60.929688 71.71875 L 61.175781 71.105469 L 61.46875 70.515625 L 61.808594 69.953125 L 62.195312 69.417969 L 62.625 68.917969 L 63.09375 68.457031 L 63.597656 68.035156 L 64.132812 67.65625 L 64.703125 67.324219 L 65.292969 67.039062 L 65.90625 66.804688 L 66.539062 66.621094 L 67.179688 66.492188 L 67.832031 66.414062 Z M 36.394531 62.765625 C 36.371094 62.765625 36.351562 62.765625 36.328125 62.765625 L 35.5625 62.804688 C 35.527344 62.808594 35.492188 62.8125 35.457031 62.816406 L 34.695312 62.917969 C 34.660156 62.921875 34.625 62.929688 34.589844 62.9375 L 33.839844 63.101562 C 33.804688 63.109375 33.769531 63.117188 33.734375 63.128906 L 33.003906 63.355469 C 32.972656 63.367188 32.9375 63.375 32.90625 63.390625 L 32.28125 63.640625 C 32.25 63.652344 32.21875 63.664062 32.191406 63.679688 L 31.582031 63.972656 C 31.554688 63.988281 31.527344 64 31.496094 64.019531 L 30.914062 64.355469 C 30.886719 64.371094 30.859375 64.390625 30.832031 64.40625 L 30.273438 64.789062 C 30.246094 64.804688 30.21875 64.824219 30.195312 64.84375 L 29.664062 65.265625 C 29.640625 65.285156 29.613281 65.304688 29.589844 65.328125 L 29.09375 65.785156 C 29.070312 65.808594 29.046875 65.832031 29.023438 65.855469 L 28.558594 66.347656 C 28.539062 66.371094 28.515625 66.394531 28.496094 66.421875 L 28.070312 66.945312 C 28.050781 66.972656 28.03125 66.996094 28.011719 67.023438 L 27.625 67.578125 C 27.605469 67.605469 27.585938 67.632812 27.570312 67.660156 L 27.222656 68.242188 C 27.207031 68.269531 27.191406 68.300781 27.179688 68.328125 L 26.875 68.933594 C 26.859375 68.964844 26.847656 68.992188 26.835938 69.023438 L 26.574219 69.652344 C 26.5625 69.679688 26.550781 69.710938 26.542969 69.742188 L 26.328125 70.386719 C 26.320312 70.417969 26.3125 70.449219 26.304688 70.480469 L 26.136719 71.136719 C 26.128906 71.167969 26.121094 71.199219 26.117188 71.230469 L 26 71.902344 C 25.996094 71.933594 25.988281 71.964844 25.988281 71.996094 L 25.917969 72.671875 C 25.910156 72.734375 25.910156 72.792969 25.910156 72.851562 L 25.910156 75.726562 L 23.011719 75.726562 C 22.28125 75.726562 21.6875 76.320312 21.6875 77.054688 C 21.6875 77.789062 22.28125 78.382812 23.011719 78.382812 L 44.980469 78.382812 C 44.984375 78.382812 44.988281 78.382812 44.988281 78.382812 C 44.992188 78.382812 44.992188 78.382812 44.996094 78.382812 L 59.632812 78.382812 C 59.632812 78.382812 59.636719 78.382812 59.636719 78.382812 C 59.640625 78.382812 59.644531 78.382812 59.644531 78.382812 L 81.617188 78.382812 C 82.347656 78.382812 82.9375 77.789062 82.9375 77.054688 C 82.9375 76.320312 82.347656 75.726562 81.617188 75.726562 L 79.027344 75.726562 L 78.988281 74.066406 C 79.023438 73.78125 79.007812 73.46875 78.941406 73.136719 C 78.933594 73.105469 78.925781 73.074219 78.917969 73.042969 L 78.914062 73.042969 L 78.90625 72.964844 C 78.90625 72.933594 78.898438 72.902344 78.894531 72.871094 L 78.777344 72.203125 C 78.773438 72.171875 78.765625 72.136719 78.757812 72.105469 L 78.59375 71.449219 C 78.585938 71.417969 78.574219 71.386719 78.566406 71.355469 L 78.351562 70.710938 C 78.34375 70.679688 78.332031 70.648438 78.320312 70.621094 L 78.058594 69.992188 C 78.046875 69.964844 78.035156 69.933594 78.019531 69.90625 L 77.714844 69.296875 C 77.703125 69.269531 77.6875 69.242188 77.671875 69.214844 L 77.324219 68.628906 C 77.308594 68.601562 77.289062 68.574219 77.269531 68.550781 L 76.882812 67.992188 C 76.863281 67.964844 76.847656 67.941406 76.824219 67.914062 L 76.398438 67.390625 C 76.378906 67.363281 76.355469 67.339844 76.335938 67.316406 L 75.871094 66.824219 C 75.847656 66.800781 75.824219 66.777344 75.800781 66.753906 L 75.304688 66.296875 C 75.28125 66.277344 75.257812 66.253906 75.230469 66.234375 L 74.699219 65.816406 C 74.675781 65.792969 74.648438 65.777344 74.621094 65.757812 L 74.0625 65.378906 C 74.035156 65.359375 74.011719 65.34375 73.980469 65.324219 L 73.398438 64.988281 C 73.367188 64.972656 73.339844 64.957031 73.3125 64.941406 L 72.703125 64.648438 C 72.675781 64.632812 72.644531 64.621094 72.617188 64.609375 L 71.988281 64.359375 C 71.957031 64.347656 71.921875 64.335938 71.890625 64.324219 L 71.160156 64.097656 C 71.125 64.089844 71.089844 64.078125 71.054688 64.070312 L 70.304688 63.90625 C 70.269531 63.898438 70.234375 63.890625 70.199219 63.886719 L 69.441406 63.785156 C 69.402344 63.78125 69.367188 63.777344 69.332031 63.773438 L 68.566406 63.738281 C 68.542969 63.734375 68.523438 63.734375 68.5 63.734375 C 68.484375 63.734375 68.472656 63.734375 68.457031 63.734375 L 67.691406 63.761719 C 67.65625 63.761719 67.621094 63.765625 67.582031 63.769531 L 66.824219 63.855469 C 66.785156 63.859375 66.75 63.867188 66.714844 63.875 L 65.964844 64.023438 C 65.929688 64.03125 65.894531 64.039062 65.859375 64.050781 L 65.125 64.265625 C 65.089844 64.273438 65.054688 64.285156 65.019531 64.296875 L 64.304688 64.570312 C 64.269531 64.585938 64.238281 64.597656 64.203125 64.617188 L 63.511719 64.945312 C 63.480469 64.964844 63.449219 64.980469 63.417969 65 L 62.753906 65.386719 C 62.722656 65.40625 62.695312 65.425781 62.664062 65.445312 L 62.035156 65.886719 C 62.007812 65.910156 61.976562 65.929688 61.949219 65.953125 L 61.363281 66.445312 C 61.332031 66.46875 61.304688 66.496094 61.28125 66.519531 L 60.734375 67.058594 C 60.707031 67.085938 60.683594 67.113281 60.660156 67.140625 L 60.160156 67.722656 C 60.136719 67.75 60.113281 67.777344 60.089844 67.808594 L 59.640625 68.429688 C 59.621094 68.460938 59.597656 68.492188 59.582031 68.523438 L 59.183594 69.179688 C 59.164062 69.210938 59.144531 69.242188 59.128906 69.277344 L 58.785156 69.964844 C 58.769531 69.996094 58.753906 70.03125 58.742188 70.066406 L 58.457031 70.78125 C 58.449219 70.796875 58.441406 70.816406 58.4375 70.832031 C 58.417969 70.84375 58.402344 70.855469 58.382812 70.867188 L 58.210938 70.691406 C 58.183594 70.664062 58.15625 70.640625 58.128906 70.617188 L 57.667969 70.222656 C 57.640625 70.199219 57.609375 70.175781 57.582031 70.15625 L 57.089844 69.800781 C 57.058594 69.78125 57.027344 69.761719 56.996094 69.742188 L 56.476562 69.429688 C 56.445312 69.410156 56.414062 69.394531 56.378906 69.378906 L 55.835938 69.109375 C 55.804688 69.09375 55.769531 69.078125 55.738281 69.066406 L 55.171875 68.84375 C 55.140625 68.832031 55.105469 68.820312 55.070312 68.808594 L 54.488281 68.632812 C 54.453125 68.625 54.417969 68.613281 54.382812 68.609375 L 53.789062 68.484375 C 53.753906 68.476562 53.71875 68.46875 53.683594 68.464844 L 53.082031 68.390625 C 53.046875 68.382812 53.007812 68.382812 52.972656 68.378906 L 52.367188 68.355469 C 52.351562 68.355469 52.332031 68.355469 52.3125 68.355469 C 52.296875 68.355469 52.277344 68.355469 52.261719 68.355469 L 51.6875 68.378906 C 51.652344 68.378906 51.617188 68.382812 51.582031 68.386719 L 51.011719 68.453125 C 50.976562 68.457031 50.945312 68.464844 50.910156 68.46875 L 50.347656 68.582031 C 50.3125 68.589844 50.277344 68.597656 50.246094 68.605469 L 49.691406 68.765625 C 49.65625 68.773438 49.625 68.785156 49.59375 68.796875 L 49.054688 68.996094 C 49.019531 69.007812 48.988281 69.023438 48.957031 69.035156 L 48.433594 69.277344 C 48.402344 69.292969 48.371094 69.308594 48.34375 69.328125 L 47.839844 69.609375 C 47.808594 69.625 47.78125 69.644531 47.753906 69.664062 L 47.273438 69.984375 C 47.246094 70.003906 47.21875 70.023438 47.191406 70.046875 L 46.738281 70.40625 C 46.710938 70.425781 46.683594 70.449219 46.660156 70.472656 L 46.648438 70.484375 L 46.472656 69.914062 C 46.464844 69.878906 46.453125 69.84375 46.4375 69.808594 L 46.152344 69.09375 C 46.140625 69.0625 46.125 69.027344 46.109375 68.996094 L 45.765625 68.304688 C 45.75 68.273438 45.730469 68.242188 45.710938 68.210938 L 45.316406 67.550781 C 45.296875 67.519531 45.273438 67.492188 45.253906 67.460938 L 44.804688 66.839844 C 44.78125 66.808594 44.757812 66.78125 44.734375 66.753906 L 44.234375 66.167969 C 44.210938 66.140625 44.1875 66.117188 44.160156 66.089844 L 43.613281 65.550781 C 43.589844 65.523438 43.5625 65.5 43.535156 65.476562 L 42.945312 64.984375 C 42.917969 64.960938 42.886719 64.9375 42.859375 64.917969 L 42.230469 64.476562 C 42.203125 64.457031 42.171875 64.433594 42.140625 64.417969 L 41.476562 64.027344 C 41.445312 64.011719 41.414062 63.992188 41.382812 63.976562 L 40.691406 63.644531 C 40.65625 63.628906 40.625 63.617188 40.589844 63.601562 L 39.875 63.328125 C 39.839844 63.316406 39.804688 63.304688 39.769531 63.292969 L 39.035156 63.082031 C 39 63.070312 38.964844 63.0625 38.929688 63.054688 L 38.179688 62.902344 C 38.144531 62.898438 38.109375 62.890625 38.070312 62.886719 L 37.3125 62.796875 C 37.273438 62.792969 37.238281 62.792969 37.203125 62.789062 L 36.4375 62.765625 C 36.421875 62.765625 36.410156 62.765625 36.394531 62.765625 Z M 36.394531 62.765625 " fill-opacity="1" fill-rule="nonzero"/></g></svg>