<svg xmlns="http://www.w3.org/2000/svg" xmlns:xlink="http://www.w3.org/1999/xlink" width="140" zoomAndPan="magnify" viewBox="0 0 104.88 104.999996" height="140" preserveAspectRatio="xMidYMid meet" version="1.0"><defs><clipPath id="id1"><path d="M 10.488281 10.546875 L 94.390625 10.546875 L 94.390625 94.453125 L 10.488281 94.453125 Z M 10.488281 10.546875 " clip-rule="nonzero"/></clipPath><clipPath id="id2"><path d="M 23.613281 61 L 32.792969 61 L 32.792969 75.847656 L 23.613281 75.847656 Z M 23.613281 61 " clip-rule="nonzero"/></clipPath><clipPath id="id3"><path d="M 59.011719 61 L 69 61 L 69 75.847656 L 59.011719 75.847656 Z M 59.011719 61 " clip-rule="nonzero"/></clipPath><clipPath id="id4"><path d="M 31.480469 56 L 61 56 L 61 75.847656 L 31.480469 75.847656 Z M 31.480469 56 " clip-rule="nonzero"/></clipPath><clipPath id="id5"><path d="M 64 29.175781 L 81.296875 29.175781 L 81.296875 75.847656 L 64 75.847656 Z M 64 29.175781 " clip-rule="nonzero"/></clipPath></defs><g clip-path="url(#id1)"><path fill="#ffffff" d="M 52.441406 94.453125 C 29.316406 94.453125 10.488281 75.625 10.488281 52.5 C 10.488281 29.375 29.316406 10.546875 52.441406 10.546875 C 75.566406 10.546875 94.390625 29.375 94.390625 52.5 C 94.390625 75.625 75.566406 94.453125 52.441406 94.453125 Z M 52.441406 11.167969 C 29.644531 11.167969 11.109375 29.707031 11.109375 52.5 C 11.109375 75.292969 29.644531 93.832031 52.441406 93.832031 C 75.234375 93.832031 93.773438 75.292969 93.773438 52.5 C 93.773438 29.707031 75.234375 11.167969 52.441406 11.167969 Z M 52.441406 11.167969 " fill-opacity="1" fill-rule="nonzero"/></g><path fill="#ffffff" d="M 40.289062 56.070312 L 42.269531 63.644531 L 49.867188 63.644531 L 51.84375 56.070312 C 49.992188 55.601562 48.066406 55.328125 46.066406 55.328125 C 44.070312 55.328125 42.136719 55.601562 40.289062 56.070312 " fill-opacity="1" fill-rule="nonzero"/><path fill="#ffffff" d="M 54.628906 44.992188 C 54.628906 43.972656 54.4375 42.972656 54.09375 42.023438 L 38.039062 42.023438 C 37.691406 42.972656 37.507812 43.972656 37.507812 44.992188 C 37.507812 49.777344 41.347656 53.664062 46.066406 53.664062 C 50.789062 53.664062 54.628906 49.777344 54.628906 44.992188 " fill-opacity="1" fill-rule="nonzero"/><path fill="#ffffff" d="M 34.972656 40.359375 L 57.167969 40.359375 C 57.957031 40.359375 57.996094 39.664062 57.996094 39.523438 C 57.996094 39.386719 57.957031 38.695312 57.167969 38.695312 L 34.972656 38.695312 C 34.179688 38.695312 34.136719 39.386719 34.136719 39.523438 C 34.136719 39.664062 34.179688 40.359375 34.972656 40.359375 " fill-opacity="1" fill-rule="nonzero"/><path fill="#ffffff" d="M 52.378906 30.402344 C 52.199219 29.785156 51.398438 29.179688 50.761719 29.179688 C 50.453125 29.179688 49.824219 29.359375 49.214844 29.527344 C 48.230469 29.808594 47.109375 30.132812 46.070312 30.132812 C 45.019531 30.132812 43.898438 29.808594 42.910156 29.527344 C 42.308594 29.359375 41.675781 29.179688 41.375 29.179688 C 40.738281 29.179688 39.941406 29.785156 39.757812 30.402344 L 37.796875 37.03125 L 54.347656 37.03125 L 52.378906 30.402344 " fill-opacity="1" fill-rule="nonzero"/><g clip-path="url(#id2)"><path fill="#ffffff" d="M 23.613281 75.847656 L 32.582031 75.847656 C 32.503906 70.847656 31.746094 66.019531 30.324219 61.476562 C 26.375 65.164062 23.839844 70.226562 23.613281 75.847656 " fill-opacity="1" fill-rule="nonzero"/></g><g clip-path="url(#id3)"><path fill="#ffffff" d="M 59.539062 75.847656 L 68.523438 75.847656 C 68.296875 70.222656 65.761719 65.15625 61.804688 61.464844 C 60.375 66.015625 59.617188 70.839844 59.539062 75.847656 " fill-opacity="1" fill-rule="nonzero"/></g><g clip-path="url(#id4)"><path fill="#ffffff" d="M 53.445312 56.535156 L 51.308594 64.6875 C 51.210938 65.054688 50.882812 65.308594 50.503906 65.308594 L 41.625 65.308594 C 41.25 65.308594 40.917969 65.054688 40.820312 64.6875 L 38.691406 56.535156 C 36.117188 57.390625 33.75 58.671875 31.695312 60.304688 C 33.308594 65.207031 34.164062 70.425781 34.246094 75.847656 L 57.875 75.847656 C 57.957031 70.425781 58.808594 65.203125 60.429688 60.292969 C 58.375 58.664062 56.015625 57.390625 53.445312 56.535156 " fill-opacity="1" fill-rule="nonzero"/></g><g clip-path="url(#id5)"><path fill="#ffffff" d="M 79.632812 29.179688 C 79.632812 31.96875 77.96875 35.484375 75.582031 36.582031 C 76.378906 35.035156 76.859375 31.71875 76.859375 29.179688 L 75.195312 29.179688 C 75.195312 33.410156 73.71875 37.222656 72.699219 37.222656 C 71.679688 37.222656 70.203125 33.414062 70.203125 29.179688 L 68.535156 29.179688 C 68.535156 31.71875 69.023438 35.035156 69.8125 36.582031 C 67.425781 35.484375 65.765625 31.96875 65.765625 29.179688 L 64.101562 29.179688 C 64.101562 33.636719 67.511719 38.417969 71.867188 38.84375 L 71.867188 75.847656 L 73.53125 75.847656 L 73.53125 38.84375 C 77.882812 38.417969 81.296875 33.636719 81.296875 29.179688 L 79.632812 29.179688 " fill-opacity="1" fill-rule="nonzero"/></g></svg>