<svg xmlns="http://www.w3.org/2000/svg" xmlns:xlink="http://www.w3.org/1999/xlink" width="100" zoomAndPan="magnify" viewBox="0 0 75 74.999997" height="100" preserveAspectRatio="xMidYMid meet" version="1.0"><defs><clipPath id="5fb984162c"><path d="M 0 3.75 L 75 3.75 L 75 71.25 L 0 71.25 Z M 0 3.75 " clip-rule="nonzero"/></clipPath></defs><g clip-path="url(#5fb984162c)"><path fill="#ffffff" d="M 47.113281 31.574219 L 66.621094 3.75 L 56.933594 3.75 L 42.261719 24.671875 L 29.148438 6.128906 L 27.449219 3.816406 L 27.449219 3.75 L 0 3.75 L 6.238281 12.507812 L 28.539062 44.222656 L 9.582031 71.25 L 19.269531 71.25 L 33.390625 51.113281 L 45.832031 68.820312 L 47.515625 71.25 L 75 71.25 L 68.761719 62.320312 Z M 64.15625 65.699219 L 50.441406 65.699219 L 10.84375 9.898438 L 24.820312 9.898438 L 24.75 9.683594 L 64.171875 65.699219 Z M 64.15625 65.699219 " fill-opacity="1" fill-rule="nonzero"/></g></svg>